<svg width="28" height="28" viewBox="0 0 28 28" fill="none" xmlns="http://www.w3.org/2000/svg">
<path d="M9.67393 23.9168C18.4768 23.9168 23.2929 16.2856 23.2929 9.66977C23.2929 9.45524 23.2884 9.23594 23.2793 9.0214C24.2162 8.31261 25.0247 7.43468 25.6668 6.42886C24.7943 6.83497 23.8679 7.1002 22.9192 7.21549C23.9181 6.58916 24.666 5.60522 25.0242 4.44608C24.0846 5.02864 23.057 5.43958 21.9854 5.6613C21.2635 4.85879 20.3089 4.32744 19.2693 4.14938C18.2297 3.97133 17.163 4.1565 16.2341 4.67627C15.3052 5.19603 14.5658 6.02143 14.1303 7.02487C13.6948 8.0283 13.5874 9.15388 13.8247 10.2276C11.922 10.1277 10.0607 9.61063 8.36126 8.70991C6.66186 7.8092 5.16236 6.54494 3.95999 4.9991C3.34888 6.10131 3.16188 7.40559 3.437 8.64685C3.71211 9.88811 4.4287 10.9732 5.44111 11.6816C4.68105 11.6564 3.93764 11.4423 3.2723 11.0571V11.1191C3.27162 12.2758 3.65387 13.397 4.35407 14.2922C5.05428 15.1874 6.02923 15.8013 7.11318 16.0296C6.4091 16.2311 5.67015 16.2604 4.95348 16.1154C5.25935 17.1101 5.85447 17.9802 6.65577 18.6041C7.45708 19.228 8.42459 19.5746 9.42327 19.5956C7.7278 20.9888 5.63339 21.7445 3.47738 21.741C3.09503 21.7404 2.71305 21.7158 2.3335 21.6675C4.52377 23.1375 7.07165 23.9183 9.67393 23.9168Z" fill="#2C8090"/>
</svg>
